HIERARCHY
ROOT Hips
{
	OFFSET -14.64140 90.27770 -84.91600
	CHANNELS 6 Xposition Yposition Zposition Zrotation Xrotation Yrotation
	JOINT Spine
	{
		OFFSET 0.00000 13.20850 -1.60436
		CHANNELS 3 Zrotation Xrotation Yrotation
		JOINT Spine1
		{
			OFFSET 0.00000 8.61716 0.00000
			CHANNELS 3 Zrotation Xrotation Yrotation
			JOINT Spine2
			{
				OFFSET 0.00000 8.61717 0.00000
				CHANNELS 3 Zrotation Xrotation Yrotation
				JOINT Spine3
				{
					OFFSET 0.00000 8.61717 0.00000
					CHANNELS 3 Zrotation Xrotation Yrotation
					JOINT Neck
					{
						OFFSET 0.00000 11.07920 1.10792
						CHANNELS 3 Zrotation Xrotation Yrotation
						JOINT Neck1
						{
							OFFSET 0.00000 7.08032 0.00000
							CHANNELS 3 Zrotation Xrotation Yrotation
							JOINT Head
							{
								OFFSET 0.00000 7.08031 0.00000
								CHANNELS 3 Zrotation Xrotation Yrotation
								End site
								{
									OFFSET 0.00000 0.00000 0.00000
								}
							}
						}
					}
					JOINT RightShoulder
					{
						OFFSET -0.01000 7.91373 5.19711
						CHANNELS 3 Zrotation Xrotation Yrotation
						JOINT RightArm
						{
							OFFSET -18.41580 0.00000 0.00000
							CHANNELS 3 Zrotation Xrotation Yrotation
							JOINT RightForeArm
							{
								OFFSET -29.11090 0.00000 0.00000
								CHANNELS 3 Zrotation Xrotation Yrotation
								JOINT RightHand
								{
									OFFSET -24.65040 0.00000 0.00000
									CHANNELS 3 Zrotation Xrotation Yrotation
									JOINT RightHandThumb1
									{
										OFFSET -5.35114 -0.85590 3.97906
										CHANNELS 3 Zrotation Xrotation Yrotation
										JOINT RightHandThumb2
										{
											OFFSET -4.52789 0.00000 0.00000
											CHANNELS 3 Zrotation Xrotation Yrotation
											JOINT RightHandThumb3
											{
												OFFSET -2.46976 0.00000 0.00000
												CHANNELS 3 Zrotation Xrotation Yrotation
												End site
												{
													OFFSET 0.00000 0.00000 0.00000
												}
											}
										}
									}
									JOINT RightHandIndex1
									{
										OFFSET -14.26970 0.00000 2.88139
										CHANNELS 3 Zrotation Xrotation Yrotation
										JOINT RightHandIndex2
										{
											OFFSET -5.48836 0.00000 0.00000
											CHANNELS 3 Zrotation Xrotation Yrotation
											JOINT RightHandIndex3
											{
												OFFSET -3.01859 0.00000 0.00000
												CHANNELS 3 Zrotation Xrotation Yrotation
												End site
												{
													OFFSET 0.00000 0.00000 0.00000
												}
											}
										}
									}
									JOINT RightHandMiddle1
									{
										OFFSET -14.26970 0.00000 -0.09147
										CHANNELS 3 Zrotation Xrotation Yrotation
										JOINT RightHandMiddle2
										{
											OFFSET -6.17441 0.00000 0.00000
											CHANNELS 3 Zrotation Xrotation Yrotation
											JOINT RightHandMiddle3
											{
												OFFSET -3.56743 0.00000 0.00000
												CHANNELS 3 Zrotation Xrotation Yrotation
												End site
												{
													OFFSET 0.00000 0.00000 0.00000
												}
											}
										}
									}
									JOINT RightHandRing1
									{
										OFFSET -12.69180 0.00000 -3.06433
										CHANNELS 3 Zrotation Xrotation Yrotation
										JOINT RightHandRing2
										{
											OFFSET -5.62556 0.00000 0.00000
											CHANNELS 3 Zrotation Xrotation Yrotation
											JOINT RightHandRing3
											{
												OFFSET -3.56744 0.00000 0.00000
												CHANNELS 3 Zrotation Xrotation Yrotation
												End site
												{
													OFFSET 0.00000 0.00000 0.00000
												}
											}
										}
									}
									JOINT RightHandPinky1
									{
										OFFSET -11.11390 0.00000 -6.03719
										CHANNELS 3 Zrotation Xrotation Yrotation
										JOINT RightHandPinky2
										{
											OFFSET -4.52789 0.00000 0.00000
											CHANNELS 3 Zrotation Xrotation Yrotation
											JOINT RightHandPinky3
											{
												OFFSET -2.46976 0.00000 0.00000
												CHANNELS 3 Zrotation Xrotation Yrotation
												End site
												{
													OFFSET 0.00000 0.00000 0.00000
												}
											}
										}
									}
								}
							}
						}
					}
					JOINT LeftShoulder
					{
						OFFSET 0.01000 7.91373 5.19711
						CHANNELS 3 Zrotation Xrotation Yrotation
						JOINT LeftArm
						{
							OFFSET 18.41580 0.00000 0.00000
							CHANNELS 3 Zrotation Xrotation Yrotation
							JOINT LeftForeArm
							{
								OFFSET 29.11090 0.00000 0.00000
								CHANNELS 3 Zrotation Xrotation Yrotation
								JOINT LeftHand
								{
									OFFSET 24.65040 0.00000 0.00000
									CHANNELS 3 Zrotation Xrotation Yrotation
									JOINT LeftHandThumb1
									{
										OFFSET 5.35114 -0.85590 3.97906
										CHANNELS 3 Zrotation Xrotation Yrotation
										JOINT LeftHandThumb2
										{
											OFFSET 4.52789 0.00000 0.00000
											CHANNELS 3 Zrotation Xrotation Yrotation
											JOINT LeftHandThumb3
											{
												OFFSET 2.46977 0.00000 0.00000
												CHANNELS 3 Zrotation Xrotation Yrotation
												End site
												{
													OFFSET 0.00000 0.00000 0.00000
												}
											}
										}
									}
									JOINT LeftHandIndex1
									{
										OFFSET 14.26970 0.00000 2.88139
										CHANNELS 3 Zrotation Xrotation Yrotation
										JOINT LeftHandIndex2
										{
											OFFSET 5.48836 0.00000 0.00000
											CHANNELS 3 Zrotation Xrotation Yrotation
											JOINT LeftHandIndex3
											{
												OFFSET 3.01859 0.00000 0.00000
												CHANNELS 3 Zrotation Xrotation Yrotation
												End site
												{
													OFFSET 0.00000 0.00000 0.00000
												}
											}
										}
									}
									JOINT LeftHandMiddle1
									{
										OFFSET 14.26970 0.00000 -0.09147
										CHANNELS 3 Zrotation Xrotation Yrotation
										JOINT LeftHandMiddle2
										{
											OFFSET 6.17440 0.00000 0.00000
											CHANNELS 3 Zrotation Xrotation Yrotation
											JOINT LeftHandMiddle3
											{
												OFFSET 3.56744 0.00000 0.00000
												CHANNELS 3 Zrotation Xrotation Yrotation
												End site
												{
													OFFSET 0.00000 0.00000 0.00000
												}
											}
										}
									}
									JOINT LeftHandRing1
									{
										OFFSET 12.69180 0.00000 -3.06433
										CHANNELS 3 Zrotation Xrotation Yrotation
										JOINT LeftHandRing2
										{
											OFFSET 5.62556 0.00000 0.00000
											CHANNELS 3 Zrotation Xrotation Yrotation
											JOINT LeftHandRing3
											{
												OFFSET 3.56744 0.00000 0.00000
												CHANNELS 3 Zrotation Xrotation Yrotation
												End site
												{
													OFFSET 0.00000 0.00000 0.00000
												}
											}
										}
									}
									JOINT LeftHandPinky1
									{
										OFFSET 11.11390 0.00000 -6.03719
										CHANNELS 3 Zrotation Xrotation Yrotation
										JOINT LeftHandPinky2
										{
											OFFSET 4.52789 0.00000 0.00000
											CHANNELS 3 Zrotation Xrotation Yrotation
											JOINT LeftHandPinky3
											{
												OFFSET 2.46976 0.00000 0.00000
												CHANNELS 3 Zrotation Xrotation Yrotation
												End site
												{
													OFFSET 0.00000 0.00000 0.00000
												}
											}
										}
									}
								}
							}
						}
					}
					JOINT pCube4
					{
						OFFSET 0.00000 10.91090 1.10792
						CHANNELS 3 Zrotation Xrotation Yrotation
						End site
						{
							OFFSET 0.00000 0.00000 0.00000
						}
					}
				}
			}
		}
	}
	JOINT RightUpLeg
	{
		OFFSET -9.98441 0.00000 0.00000
		CHANNELS 3 Zrotation Xrotation Yrotation
		JOINT RightLeg
		{
			OFFSET 0.00000 -42.11790 0.00000
			CHANNELS 3 Zrotation Xrotation Yrotation
			JOINT RightFoot
			{
				OFFSET 0.00000 -45.00020 -0.00001
				CHANNELS 3 Zrotation Xrotation Yrotation
				JOINT RightForeFoot
				{
					OFFSET 0.00000 -3.74820 0.00000
					CHANNELS 3 Zrotation Xrotation Yrotation
					JOINT RightToeBase
					{
						OFFSET 0.00000 0.06325 14.43120
						CHANNELS 3 Zrotation Xrotation Yrotation
						End site
						{
							OFFSET 0.00000 0.00000 0.00000
						}
					}
				}
			}
		}
	}
	JOINT LeftUpLeg
	{
		OFFSET 9.98441 0.00000 0.00000
		CHANNELS 3 Zrotation Xrotation Yrotation
		JOINT LeftLeg
		{
			OFFSET 0.00000 -42.11800 0.00000
			CHANNELS 3 Zrotation Xrotation Yrotation
			JOINT LeftFoot
			{
				OFFSET 0.00000 -45.00070 0.00000
				CHANNELS 3 Zrotation Xrotation Yrotation
				JOINT LeftForeFoot
				{
					OFFSET 0.00000 -3.74824 0.00000
					CHANNELS 3 Zrotation Xrotation Yrotation
					JOINT LeftToeBase
					{
						OFFSET 0.00000 0.06325 14.43110
						CHANNELS 3 Zrotation Xrotation Yrotation
						End site
						{
							OFFSET 0.00000 0.00000 0.00000
						}
					}
				}
			}
		}
	}
}
MOTION
Frames: 4
Frame Time: 0.050000
0.007006586637930397 -0.002322481241533339 -0.024231379160393657 -0.013883947645701056 0.0017837119718091576 0.009751160101745822 4.48023823966646 3.056057954735244 -2.1147944571851083 -0.7141992720798179 3.5371181764204715 0.3980138261853355 -0.6302978982648297 -1.3166274646124403 0.7283458458015367 -0.40985414753373295 -0.5492710414066329 -0.36071900789482986 0.204654450818458 13.372317366581015 -2.0674099612436954 0.438881183751534 -0.024313252897108072 -4.619282492607417 1.1010083740556003 -16.018127423499916 -0.368547258581287 -11.159284017188176 3.7257131220455877 -17.042168331643 78.45842021899897 -4.134913453055069 19.907642002601676 11.458874664922513 3.8201166253295415 80.39649299462202 13.163641068221153 -0.3172660439497073 -1.6297155654305446 4.53389850239276 -0.1123187446438566 -1.6064521081162788 -6.591146690874226e-05 0.035867524861099766 -56.185561874052894 0.025444576659499483 0.018329675050422163 -56.24259218174155 -38.78122355155188 0.00995654601377165 0.004992334576864937 -0.020288074990629328 0.0013232393470111908 0.007704822077097875 0.03724009994726301 -0.022280411701943673 0.018802057904211748 -36.680883427218134 -0.003717523443469878 0.010246029081254092 0.013980260134453668 -0.03405898294231238 0.002129254323929562 -0.04676581184229197 -0.0019711137728807477 -0.004634197205718325 -19.768354159292343 -0.013780496814115226 0.027129746885622658 0.03821525132450072 -0.02065640081194867 0.03358315262328571 0.028569585050728537 0.04004688982001179 0.011842077007498512 24.038755149228177 -0.0023541992730578875 -0.0016226502688627762 28.83866096234202 -0.004609319150400283 -0.049403088499959044 28.90477727331158 -0.001182637764217277 -0.012029169643988768 11.127074027656034 2.580283126372156 14.451815498779043 -69.9208533266004 12.3644267564874 -22.947302434645774 -5.21114106034216 -1.3850188153709113 -84.39572598546967 -15.379272969006639 -0.44436889490628906 -2.16371108669471 -0.4322972489775276 0.06705151697350428 -8.156484473049685 -0.0038081256246666525 -0.015250828077495485 44.52816505892154 -0.008359405096561344 0.008096858850439653 44.587713865546 12.437116039290968 0.009572931008444809 -0.012412344999587993 0.024959103705017822 -0.013956646135700319 0.04290067943970315 0.020929326572838115 0.019441600914478024 -0.010998846251899383 11.140323183261195 0.010368387956997514 0.018388683016228348 0.04645725659884821 0.034452229928737026 -0.00021293134673481574 -0.04430176967104131 -0.04398919600466488 0.01053496696185726 4.801086707564935 -0.0357245255429592 -0.01072150722145301 -0.008751042480479865 0.02423660044085443 0.006316749093114349 -0.043517886856036414 0.014356674567666578 -0.028749699970241703 -5.636052738114989 -0.03678086418917405 0.022711873099889267 -6.732335537081835 0.003376152473109016 -0.012896215389526807 -6.710174166573384 0.009108708675595462 0.009439230227209489 0.02746385501774284 0.02434266376499521 -0.0343463092546131 8.076841764824618 3.481128586942341 -19.23462984794557 0.025511017768170854 10.359553693784768 0.02550091398025581 -5.606811605459314 -15.70095493549946 3.2152399928574216 -0.04959127665997178 -0.013301059376877464 0.04215257351870586 -0.04923975505535765 4.693416488024799 -0.012694907453811266 12.503180578993137 -8.230544793778193 6.906874371791968 0.014210854264556436 46.4072794458044 -0.007422980492857284 -4.325407700970952 -14.747496643946578 -3.827562088855705 -0.004128200766105594 -0.001445556162018022 -0.005746658192704963 0.04523727105558516 -10.696512076902238 0.020033536954207065 
-0.048205866425807826 -0.034205839970962874 -0.022674103623459837 0.04710871055886743 0.022252756112122574 -0.03797160315055442 4.527999900250205 2.7503612354010087 -2.138704121831994 -0.6904604286051997 3.510621926230406 0.3948429764831336 -0.6706566564932389 -1.3553655634580015 0.6332678307217202 -0.4313644348297229 -0.5894599555522335 -0.31445934549540716 0.19093197473989765 13.749524995256271 -1.7158157153275981 0.39555809002466646 0.1433973113725464 -3.8756698484374685 1.0447316584710387 -15.733128497505689 -0.3221700268674221 -11.730345913352027 3.891335896176753 -16.828090985173112 78.79271825451355 -5.099683469996754 24.224507005181007 13.499743552074978 3.2533938936646556 84.62773426457564 12.349876860469237 -0.2586133845034743 -1.5329908447137475 4.555560329424954 -0.15877643855006623 -1.6186595776279513 -0.03386654676146103 0.02899534525928832 -56.21654673741382 0.03037666775064738 -0.03919921666522169 -56.18908787200614 -38.73530624236303 -0.008224475199100445 -0.03987120338581754 0.0008673080009191596 0.02070212301443748 0.021118964804598 0.009173498243689345 -0.028297182860875382 0.026086167530952248 -36.70370723838785 -0.04861414038457751 0.029632140523360943 0.0014001805151723503 -0.04350513912478389 0.033618316360583204 -0.018209818054782778 0.013243792870664572 0.03432053800453014 -19.7924649356574 0.03243196656880693 0.010496829190319313 0.004547635237497558 0.010671715631274472 -0.019799208001965853 -0.004808424201960376 0.004122000459303093 0.03254409524907715 24.009419093043427 0.013745687617913959 -0.001234259200450849 28.83559484956605 0.022552711413888673 -0.030749938078065277 28.868468884035767 -0.04888959703584819 -0.020852245583386345 11.95189305261204 2.751861014141423 14.335193463693463 -69.98819578860106 12.067788020653479 -27.559310817175017 -3.934491248251651 -3.1869706244748692 -89.36618855351101 -13.55928661155696 0.10836733120197983 -3.174138258008122 -0.4968315137293312 0.11070980458724472 -8.158237402144339 0.03282974142127948 0.03955180844569249 44.53088300867134 0.04586295385506974 0.009460059436434937 44.566945194601104 12.501751423817282 -0.044525359959935625 -0.013001494558700767 0.008284925995038555 -0.01975101023228535 -0.00021123845902867693 -0.032083370394707635 0.006591654043700827 0.023227350778264017 11.109289547964567 -0.008260060016197654 -0.01966034545570711 0.019032182830349322 0.017830650338714886 -0.021063363397215398 0.0008376726431228724 0.0034073774753170345 -0.024415628020679328 4.767606407673683 -0.04923509429579661 -0.03451897261693587 -0.029203246797707347 0.0169021085291646 0.013633962064944893 0.039710945550225675 -0.04838042399562711 0.013771531902011877 -5.584934069612585 -0.031107395084859973 0.004712994750773226 -6.7081879145877705 0.018075376389321787 -0.02854712831272459 -6.765547143754095 -0.005399869245667292 -0.01375287614777745 0.03881009018989082 -0.010899787166481963 0.012691793345348855 8.088124438002334 3.5009349416834743 -19.19146094160621 -0.040732801632662734 10.380813771623846 -0.014960766287407758 -5.591784201209271 -15.639950319056487 3.1923105746215077 0.001969010808459416 0.0280462460355228 0.019119694380970473 0.0421762683973503 4.719688745446104 0.03365181424925098 12.425304408236892 -8.2423300534571 6.894529969830556 0.03621958517099275 46.409950209169345 -0.014206315368532372 -4.3604211623158475 -14.736859243398982 -3.7876289149046256 0.0416515348474441 0.04839438711783645 0.038403120841332586 0.028710383641729013 -10.774856481989298 -0.036749983423204 
0.0421827221765189 -0.012831836459407296 -0.0005609962379101395 0.016526625110070046 0.018609686544820953 -0.014292055265880644 4.6395174390403415 2.626358976378278 -2.162049712248874 -0.7070064552034894 3.5188450827150204 0.33998290819643423 -0.6705440600742378 -1.4155925357373231 0.5374735318850756 -0.5860174224267907 -0.567539684986568 -0.3308673492752667 0.1056069153776425 13.983124750755897 -1.4871169659050658 0.42862709965702894 0.3134624952385382 -3.0666081697989456 0.9435246483456524 -15.45100688077901 -0.2686682301097139 -12.067876059637523 4.0645865191135035 -16.639836662086573 78.90612658437819 -5.458012400656298 27.07247684921833 14.13504433993537 2.779662515987814 87.12847078260992 11.709632379366301 -0.314846831411468 -1.3355592845083535 4.5225891776555915 -0.16688066614517666 -1.555801864580936 -0.03171689150518782 -0.03389765375096639 -56.19817365522886 -0.018382844399363704 -0.040521245299609425 -56.22962211219305 -38.801415450848864 -0.02295377504194862 -0.030287409491329374 -0.033234689797819496 -0.03175727256076796 -0.007119055876027269 0.004326446875713043 -0.027119511194635144 -0.04228965489255921 -36.654289315720966 -0.031881791101707684 -0.04196405041353162 -0.04604604603162499 0.034546401469110276 -0.022468920706975926 -0.013540616569602058 0.016307205192257257 -0.002138829910372269 -19.75772255964519 -0.0019464818734672782 0.03896556145544367 -0.041365738215949854 0.00947087745643718 0.023431339781442666 0.009682183531553411 0.00828459729818137 -0.04067460816341936 24.091947621714816 0.02815533694442215 -0.030869035163608272 28.850359953562254 -0.039478637979895724 0.017978457808186524 28.885833530946794 -0.004031634395001941 -0.019066700021236768 12.568695784279763 2.9068242777760243 14.178311120691461 -70.18449000183237 11.709404364306208 -31.817539680411464 -2.1069042760489713 -4.562402983609287 -92.7554083192965 -11.695010242859464 0.9675248533626817 -4.367093148010166 -0.471763592318615 0.01931300656131222 -8.087894689594364 -0.047161053073733465 0.02416407518093633 44.55453074569675 -0.01507265874911435 0.013940605000010988 44.538384716903224 12.451905748426723 -0.028050937817727415 -0.013198881136397698 -0.03204219141694232 0.0050137452453790044 0.02505562276920802 -0.0044430424765578205 -0.0296752675387184 0.0482683316344024 11.137208025712141 0.0007259641812449111 0.041035622689216414 0.025133824294628567 -0.014350735640743238 -0.009924246480485295 -0.004485576346923806 -0.0013165548700092402 0.028420627498472496 4.7412628482479455 0.009657378496270913 0.00322944010898088 -0.0019606781745485488 0.022359841936428013 0.007791317872949057 -0.04038560134143343 0.046153935609494774 0.031838042167552275 -5.600588471247945 -0.01260474584882473 -0.022866870388941772 -6.7389615812477155 0.016314588719838513 -0.03040971799571757 -6.7295673548389034 0.02159295203788532 -0.009536236508942917 0.0482360914094404 -0.014643571482753737 0.02769213818839698 8.002806482297894 3.4590718562732676 -19.207475678569917 0.010703680734144187 10.351516026968065 -0.022219011923276893 -5.631399905796578 -15.645247603679463 3.1662572909366737 0.01283413172577714 -0.010118435609472473 -0.019766789486398616 -0.018292313835339035 4.67872877870466 -0.04164713956393575 12.474413155312094 -8.19928800357999 6.834480519739791 -0.018650501934743012 46.373779869349136 0.02419835298834848 -4.327612143856188 -14.711133264460926 -3.82309789269106 0.004528774924133942 -0.000614595589725154 -0.019067790830650366 -0.02080850662286043 -10.784077922230463 -0.043258956671077584 
0.03385471225005068 -0.012414864496577608 0.016844424715296093 0.03507356540941936 -0.018708374986996075 0.017152889762020552 4.60551558103562 2.4930030330964277 -2.104924640044148 -0.6923844820138672 3.4634076262211506 0.34707818222746134 -0.687584750674819 -1.4406510730301179 0.4093125541161375 -0.5289809793918566 -0.5476343710972654 -0.3120924957353446 -0.000639821735045655 14.271181492843372 -1.277528066298786 0.45482528093834224 0.503988394348259 -2.362885616341324 0.8561225256099302 -15.265127497565537 -0.25268243233429233 -12.205157224498473 4.122990386825722 -16.38958575693766 79.11257238827184 -4.907310305782981 29.02185827886884 13.376572240636905 2.337423693141237 88.81607330599702 11.048470385342345 -0.2007476974221906 -1.0443820536589232 4.5042661110224245 -0.17265570437367686 -1.5661178073784185 -0.031037470235649664 -0.0054052294541101584 -56.23468196129152 -0.0004099964155609853 0.01459468980714091 -56.25723113104734 -38.81752877064778 0.032043305407535264 -0.01512564927918877 -0.007578782163172927 0.03835816722376974 0.0327874404078717 0.011252139692649678 -0.04838100627455898 0.02361514722299955 -36.64621818561796 0.03895217362912953 0.008544488646932767 -0.02777453429228345 -0.047271160683607726 0.026781876057780145 -0.003417682150546032 -0.003456700075331436 -0.017866546188724977 -19.750507907170963 0.0031280651292349203 0.01970554971494706 -0.02611503408863724 0.022510211697906256 0.014632745987244204 0.024594761590203292 0.03515263575320826 0.01955611053031218 24.039378080745653 -0.007331820144013202 0.017147378515413012 28.833022942474905 0.007498677477397327 -0.03026590740742441 28.913920571983486 -0.01056938874564838 0.032454158557860026 13.130852597294648 2.996000394412985 14.001986547213628 -70.69689676763483 11.81212360386867 -36.25241235381709 0.5126155282100093 -5.820260866108998 -95.18832491324119 -9.932076915464183 2.1291365216084768 -5.5905334285693185 -0.4495175685131572 0.10650078856016766 -8.172107522628377 0.008066697960334749 -0.019104144817911197 44.589901102765516 0.026552413937199162 0.033866279569038794 44.56706683975129 12.495286265759379 0.008267336725335877 -0.026137530442720415 -0.013872067995989128 -0.030803632353661462 -0.021436211315824735 -0.016206937014840182 0.047940032499292504 0.016500190281976957 11.111464045097161 -0.02911969083674269 -0.039039985696752835 -0.02102042783634948 0.028287332265912676 -0.02361580135226665 -0.017623498134198275 0.039433976347245776 0.04845231775827741 4.736018519556281 0.031238416493900387 -0.011257687847634933 0.006438796622663075 0.03866627554897546 -0.038419453456749644 -0.04044610683558932 -0.04707038923169559 0.02580672800484375 -5.609418769113135 -0.048437148532461574 -0.045994609888540795 -6.678280307781016 -0.025539242836845086 0.04511037919026794 -6.744634256413433 0.03131587528443415 0.04994191204163105 -0.001051271454542366 -0.0026104495177439323 0.017099261065503652 8.076458252136659 3.474855705946891 -19.22410492960384 -0.002125158605167019 10.388432035700442 0.020062573569267637 -5.622193582550875 -15.649566808571553 3.228911099934687 -0.027428180072034583 0.027729686672765916 0.04547604707389371 0.032773753479160506 4.658268369037443 -0.01092008703341942 12.42425306602028 -8.199911365239002 6.886285521460083 0.011763080122861619 46.36192171224036 -0.0012825675551772764 -4.338513976746656 -14.721952636371041 -3.851944364276211 -0.028961231844069558 -0.019950299907390154 0.0025551358098848008 -0.01687788416886538 -10.7294886049786 -0.018724356962041208 
